<?xml version="1.0" encoding="UTF-8"?>
<svg version="1.1" viewBox="0 0 2048 2048" width="128" height="128" xmlns="http://www.w3.org/2000/svg">
<path fill="#FFFFFF" transform="translate(188,11)" d="m0 0h31l25 4 18 5 21 8 19 10 16 11 14 11 10 9 15 14 133 133 4 3v2h2l6 7 4 3v2l4 2 104 104 2 1v2l4 2 146 146 6 5 4 4v2l4 2 158 158 8 7 45 45 8 7 9 8 7 8 7 6 5-1 23-23h2v-2l5-5 3-1 2-4h2l2-4h2l1-3 6-5 7-8 9-8 7-8h2v-2l8-7 5-6 8-7 7-8 8-7 519-519 5-6 7-6 7-8h2v-2l8-7 4-5 8-7 7-7 11-9 15-11 15-9 19-9 14-5 22-5 15-2 22-1 19 1 25 4 21 6 19 8 18 10 14 10 14 12 2 1v2l4 2 6 6v2h2l11 14 10 15 11 21 8 21 6 21 3 20 1 26-2 20-5 23-5 15-8 19-10 18-12 16-9 11-15 16-7 7-2 3h-2l-1 3-8 7-4 5-8 7-617 617-13 10-2 2 2 6 207 207 7 6v2l4 2v2l4 2 162 162 8 7 168 168 8 7 103 103 7 8 10 10 18 22 10 15 8 13 6 12 10 24v2l2 1 1 13h2l1-2v102l-2 1-2-6-4-2-7 19-8 16-12 19-13 17-5 6h-2v2h-2v2l-8 7-12 9-16 10-21 10-24 8-24 5-23 2h-18l-26-2-31-6-20-6-18-8-18-11-12-9-14-12-8-7-9-9-8-7-80-80v-2l-3-1-5-6-7-6-7-8-490-490-7-6-5-6-7-6-16-16-7-8-6-5v-2l-3-1-5-6-10-8h-5l-4 2-2 4-13 13-8 7-11 12-7 7-6 7h-2l-2 4h-2l-1 3-8 7-547 547-5 6-7 6-7 8-3 3h-2l-2 4h-2l-2 4h-2l-2 4-6 5-5 6-8 7-15 15-14 11-13 9-13 8-14 7-21 8-15 4-22 4-9 1h-47l-26-4-24-6-20-8-17-9-13-9-14-12-13-14-11-15-13-22-10-25-5-14-2-2-1-8v-84l4 3 1-5 8-21 8-16 10-18 12-16 9-11 9-10 614-614 7-8 5-4 7-8 7-7 6-5 6-7 7-6 6-7h2v-2l8-7 7-9 1-3h-2l-3-5-57-57-5-6-613-613-9-11-10-13-11-17-8-16-8-18-4-15-4-24-1-18 1-19 4-25 5-19 6-16 9-19 11-17 11-15 8-8 2-3h2l2-4 11-9 12-10 15-9 25-12 23-7 22-4zm1110 1e3m748 795 1 2zm-2044 81m2039 6m1 3 2 2v-2z"/>
<path fill="#FFFFFF" transform="translate(0,1906)" d="m0 0 2 2-1 4-1-1z"/>
<path fill="#FFFFFF" transform="translate(1305,1022)" d="m0 0 2 2-3-1z"/>
<path fill="#FFFFFF" transform="translate(1304,1016)" d="m0 0h2v2h-2z"/>
<path fill="#FFFFFF" transform="translate(1307,1013)" d="m0 0 2 2h-2z"/>
<path fill="#FFFFFF" transform="translate(2047,1797)" d="m0 0"/>
<path fill="#FFFFFF" transform="translate(2044,1797)" d="m0 0"/>
<path fill="#FFFFFF" transform="translate(1020,1302)" d="m0 0"/>
<path fill="#FFFFFF" transform="translate(742,1023)" d="m0 0"/>
</svg>
